<?xml version="1.0" encoding="UTF-8"?>
<svg width="192" height="192" enable-background="new" version="1.1" viewBox="0 0 50.8 50.8" xmlns="http://www.w3.org/2000/svg">
	<g transform="translate(0 -246.2)">
		<g transform="translate(-3.2841 2.8487)">
			<path d="m18.087 281.12 14.298 5.734c-3.5146-9.9342-14.033-42.234-23.585-36.251-9.5519 5.9836 9.2878 30.517 9.2878 30.517z" fill="#12a2e2"/>
			<path d="m51.379 259c-9.0534-5.9924-34.938 17.498-34.938 17.498 7.0006 1.6123 43.992-11.506 34.938-17.498z" fill="#0acd20"/>
			<path d="m44.302 283.5c2.1804-10.608-11.195-16.928-11.195-16.928l-19.386-10.403c1.0473 7.0286 28.401 37.94 30.582 27.332z" fill="#fbd500"/>
			<path d="m11.989 286.37c10.617 2.8884 21.43-17.964 21.43-17.964l2.8223-16.424c-5.8688 3.6011-34.869 31.499-24.252 34.388z" fill="#fb221a"/>
		</g>
	</g>
</svg>
